name Run_40002_GRF.mot
datacolumns 19
datarows 25
range 1.204 1.228
endheader
time	     ground_force_vx	     ground_force_vy	     ground_force_vz	     ground_force_px	     ground_force_py	     ground_force_pz	   l_ground_force_vx	   l_ground_force_vy	   l_ground_force_vz	   l_ground_force_px	   l_ground_force_py	   l_ground_force_pz	     ground_torque_x	     ground_torque_y	     ground_torque_z	   l_ground_torque_x	   l_ground_torque_y	   l_ground_torque_z	
1.204	          0.00000000	          0.00000000	          0.00000000	          0.00000000	          0.00000000	          0.00000000	          0.00000000	          0.00000000	          0.00000000	          0.00000000	          0.00000000	          0.00000000	          0.00000000	          0.00000000	          0.00000000	          0.00000000	          0.00000000	          0.00000000	
1.205	          0.00000000	          0.00000000	          0.00000000	          0.00000000	          0.00000000	          0.00000000	          0.00000000	          0.00000000	          0.00000000	          0.00000000	          0.00000000	          0.00000000	          0.00000000	          0.00000000	          0.00000000	          0.00000000	          0.00000000	          0.00000000	
1.206	          0.00000000	          0.00000000	          0.00000000	          0.00000000	          0.00000000	          0.00000000	          0.00000000	          0.00000000	          0.00000000	          0.00000000	          0.00000000	          0.00000000	          0.00000000	          0.00000000	          0.00000000	          0.00000000	          0.00000000	          0.00000000	
1.207	          0.00000000	          0.00000000	          0.00000000	          0.00000000	          0.00000000	          0.00000000	          0.00000000	          0.00000000	          0.00000000	          0.00000000	          0.00000000	          0.00000000	          0.00000000	          0.00000000	          0.00000000	          0.00000000	          0.00000000	          0.00000000	
1.208	          0.00000000	          0.00000000	          0.00000000	          0.00000000	          0.00000000	          0.00000000	          0.00000000	          0.00000000	          0.00000000	          0.00000000	          0.00000000	          0.00000000	          0.00000000	          0.00000000	          0.00000000	          0.00000000	          0.00000000	          0.00000000	
1.209	          0.00000000	          0.00000000	          0.00000000	          0.00000000	          0.00000000	          0.00000000	         -2.72986100	         11.64032600	          2.00775300	          1.05151900	          0.00000000	         -0.34676500	          0.00000000	          0.00000000	          0.00000000	          0.00000000	         -0.30393400	          0.00000000	
1.21	          0.00000000	          0.00000000	          0.00000000	          0.00000000	          0.00000000	          0.00000000	         -3.09442900	         13.75059000	          2.21585000	          1.05562300	          0.00000000	         -0.34947700	          0.00000000	          0.00000000	          0.00000000	          0.00000000	         -0.55758600	          0.00000000	
1.211	          0.00000000	          0.00000000	          0.00000000	          0.00000000	          0.00000000	          0.00000000	         -3.50986700	         16.20483000	          2.45285900	          1.05954800	          0.00000000	         -0.35166500	          0.00000000	          0.00000000	          0.00000000	          0.00000000	         -0.82238900	          0.00000000	
1.212	          0.00000000	          0.00000000	          0.00000000	          0.00000000	          0.00000000	          0.00000000	         -3.97969700	         19.05075300	          2.72145400	          1.06326000	          0.00000000	         -0.35343500	          0.00000000	          0.00000000	          0.00000000	          0.00000000	         -1.09781500	          0.00000000	
1.213	          0.00000000	          0.00000000	          0.00000000	          0.00000000	          0.00000000	          0.00000000	         -4.50726800	         22.34081100	          3.02444500	          1.06673900	          0.00000000	         -0.35487200	          0.00000000	          0.00000000	          0.00000000	          0.00000000	         -1.38327600	          0.00000000	
1.214	          0.00000000	          0.00000000	          0.00000000	          0.00000000	          0.00000000	          0.00000000	         -5.09563700	         26.13230500	          3.36476300	          1.06997800	          0.00000000	         -0.35604100	          0.00000000	          0.00000000	          0.00000000	          0.00000000	         -1.67812800	          0.00000000	
1.215	          0.00000000	          0.00000000	          0.00000000	          0.00000000	          0.00000000	          0.00000000	         -5.74744300	         30.48740400	          3.74544900	          1.07297800	          0.00000000	         -0.35699100	          0.00000000	          0.00000000	          0.00000000	          0.00000000	         -1.98166800	          0.00000000	
1.216	          0.00000000	          0.00000000	          0.00000000	          0.00000000	          0.00000000	          0.00000000	         -6.46476600	         35.47306800	          4.16962800	          1.07574500	          0.00000000	         -0.35776300	          0.00000000	          0.00000000	          0.00000000	          0.00000000	         -2.29313600	          0.00000000	
1.217	          0.00000000	          0.00000000	          0.00000000	          0.00000000	          0.00000000	          0.00000000	         -7.24899100	         41.16088900	          4.64048400	          1.07828900	          0.00000000	         -0.35838500	          0.00000000	          0.00000000	          0.00000000	          0.00000000	         -2.61171800	          0.00000000	
1.218	          0.00000000	          0.00000000	          0.00000000	          0.00000000	          0.00000000	          0.00000000	         -8.10067600	         47.62679700	          5.16123000	          1.08062200	          0.00000000	         -0.35888300	          0.00000000	          0.00000000	          0.00000000	          0.00000000	         -2.93654600	          0.00000000	
1.219	          0.00000000	          0.00000000	          0.00000000	          0.00000000	          0.00000000	          0.00000000	         -9.01944000	         54.95064200	          5.73506900	          1.08275800	          0.00000000	         -0.35927300	          0.00000000	          0.00000000	          0.00000000	          0.00000000	         -3.26669900	          0.00000000	
1.22	          0.00000000	          0.00000000	          0.00000000	          0.00000000	          0.00000000	          0.00000000	        -10.00387500	         63.21565200	          6.36514700	          1.08471000	          0.00000000	         -0.35957000	          0.00000000	          0.00000000	          0.00000000	          0.00000000	         -3.60121100	          0.00000000	
1.221	          0.00000000	          0.00000000	          0.00000000	          0.00000000	          0.00000000	          0.00000000	        -11.05150200	         72.50772900	          7.05450500	          1.08649200	          0.00000000	         -0.35978400	          0.00000000	          0.00000000	          0.00000000	          0.00000000	         -3.93906400	          0.00000000	
1.222	          0.00000000	          0.00000000	          0.00000000	          0.00000000	          0.00000000	          0.00000000	        -12.15878100	         82.91461200	          7.80602000	          1.08811600	          0.00000000	         -0.35992400	          0.00000000	          0.00000000	          0.00000000	          0.00000000	         -4.27920200	          0.00000000	
1.223	          0.00000000	          0.00000000	          0.00000000	          0.00000000	          0.00000000	          0.00000000	        -13.32117900	         94.52484100	          8.62233400	          1.08959500	          0.00000000	         -0.35999500	          0.00000000	          0.00000000	          0.00000000	          0.00000000	         -4.62052400	          0.00000000	
1.224	          0.00000000	          0.00000000	          0.00000000	          0.00000000	          0.00000000	          0.00000000	        -14.53332000	        107.42664300	          9.50579200	          1.09093700	          0.00000000	         -0.36000400	          0.00000000	          0.00000000	          0.00000000	          0.00000000	         -4.96189700	          0.00000000	
1.225	          0.00000000	          0.00000000	          0.00000000	          0.00000000	          0.00000000	          0.00000000	        -15.78920800	        121.70655100	         10.45834700	          1.09215500	          0.00000000	         -0.35995400	          0.00000000	          0.00000000	          0.00000000	          0.00000000	         -5.30215400	          0.00000000	
1.226	          0.00000000	          0.00000000	          0.00000000	          0.00000000	          0.00000000	          0.00000000	        -17.08253900	        137.44796800	         11.48149000	          1.09325400	          0.00000000	         -0.35984900	          0.00000000	          0.00000000	          0.00000000	          0.00000000	         -5.64009900	          0.00000000	
1.227	          0.00000000	          0.00000000	          0.00000000	          0.00000000	          0.00000000	          0.00000000	        -18.40708400	        154.72953800	         12.57614400	          1.09424400	          0.00000000	         -0.35969000	          0.00000000	          0.00000000	          0.00000000	          0.00000000	         -5.97451300	          0.00000000	
1.228	          0.00000000	          0.00000000	          0.00000000	          0.00000000	          0.00000000	          0.00000000	        -19.75714300	        173.62336700	         13.74257800	          1.09513100	          0.00000000	         -0.35948000	          0.00000000	          0.00000000	          0.00000000	          0.00000000	         -6.30416100	          0.00000000	
